<svg width="16" height="16" viewBox="0 0 16 16" fill="none" xmlns="http://www.w3.org/2000/svg">
<g clip-path="url(#clip0_576_2041)">
<path d="M8.00065 1.33334C4.32065 1.33334 1.33398 4.32001 1.33398 8.00001C1.33398 11.68 4.32065 14.6667 8.00065 14.6667C11.6807 14.6667 14.6673 11.68 14.6673 8.00001C14.6673 4.32001 11.6807 1.33334 8.00065 1.33334ZM10.6673 8.66668H8.66732V10.6667C8.66732 11.0333 8.36732 11.3333 8.00065 11.3333C7.63398 11.3333 7.33398 11.0333 7.33398 10.6667V8.66668H5.33398C4.96732 8.66668 4.66732 8.36668 4.66732 8.00001C4.66732 7.63334 4.96732 7.33334 5.33398 7.33334H7.33398V5.33334C7.33398 4.96668 7.63398 4.66668 8.00065 4.66668C8.36732 4.66668 8.66732 4.96668 8.66732 5.33334V7.33334H10.6673C11.034 7.33334 11.334 7.63334 11.334 8.00001C11.334 8.36668 11.034 8.66668 10.6673 8.66668Z" fill="#50E82A"/>
</g>
<defs>
<clipPath id="clip0_576_2041">
<rect width="16" height="16" fill="white"/>
</clipPath>
</defs>
</svg>
