<svg width="24" height="24" viewBox="0 0 24 24" fill="none" xmlns="http://www.w3.org/2000/svg">
<path d="M15.1258 21.1L6.70078 12.7C6.60078 12.6 6.53011 12.4917 6.48878 12.375C6.44678 12.2583 6.42578 12.1333 6.42578 12C6.42578 11.8667 6.44678 11.7417 6.48878 11.625C6.53011 11.5083 6.60078 11.4 6.70078 11.3L15.1258 2.87499C15.3591 2.64166 15.6508 2.52499 16.0008 2.52499C16.3508 2.52499 16.6508 2.64999 16.9008 2.89999C17.1508 3.14999 17.2758 3.44166 17.2758 3.77499C17.2758 4.10833 17.1508 4.39999 16.9008 4.64999L9.55078 12L16.9008 19.35C17.1341 19.5833 17.2508 19.8707 17.2508 20.212C17.2508 20.554 17.1258 20.85 16.8758 21.1C16.6258 21.35 16.3341 21.475 16.0008 21.475C15.6674 21.475 15.3758 21.35 15.1258 21.1Z" fill="black"/>
</svg>
