<svg width="83" height="40" viewBox="0 0 83 40" fill="none" xmlns="http://www.w3.org/2000/svg">
<rect x="0.25" y="0.25" width="82.5" height="39.5" rx="19.75" stroke="white" stroke-width="0.5"/>
<path fill-rule="evenodd" clip-rule="evenodd" d="M20 8C13.3726 8 8 13.3726 8 20C8 26.6274 13.3726 32 20 32H63C69.6274 32 75 26.6274 75 20C75 13.3726 69.6274 8 63 8H20ZM21.3023 15.556H20.9783V16.54C20.9783 18.052 20.2223 19.54 18.3623 20.164L19.2143 21.424C20.4779 20.986 21.3292 20.1142 21.8092 19.0115C22.2817 19.9623 23.0897 20.7095 24.2543 21.1L25.0823 19.864C23.3423 19.324 22.5983 18.028 22.5983 16.696V15.556H22.2863H21.3023ZM27.2903 14.956H25.6943V21.52H27.2903V18.844H28.7663V17.524H27.2903V14.956ZM27.4223 23.92C27.4223 22.576 25.9703 21.772 23.6663 21.772C21.3503 21.772 19.8983 22.576 19.8983 23.92C19.8983 25.276 21.3503 26.068 23.6663 26.068C25.9703 26.068 27.4223 25.276 27.4223 23.92ZM21.4823 23.92C21.4823 23.308 22.2503 23.008 23.6663 23.008C25.0823 23.008 25.8383 23.308 25.8383 23.92C25.8383 24.544 25.0823 24.832 23.6663 24.832C22.2503 24.832 21.4823 24.544 21.4823 23.92ZM33.8054 21.412H29.5814V20.152H39.6254V21.412H35.4014V22.336H38.4254V25.948H30.7454V22.336H33.8054V21.412ZM38.7374 15.256H30.4574V16.528H31.8734V18.196H30.5414V19.468H38.6534V18.196H37.3214V16.528H38.7374V15.256ZM35.7254 16.528H33.4694V18.196H35.7254V16.528ZM32.3174 23.572H36.8654V24.688H32.3174V23.572ZM48.3912 22C47.3418 22.1614 46.4451 22.2041 45.2232 22.2136V20.248H47.9832V19.012H45.2232V17.38H48.1992V16.108H43.7112V22.216V22.744V23.536H44.4912C46.1472 23.536 47.2512 23.512 48.5232 23.296L48.3912 22ZM52.8912 14.956H51.3672V19.252H50.4672V15.124H48.9672V25.564H50.4672V20.536H51.3672V26.068H52.8912V14.956ZM61.6142 15.976H55.4102V17.236H61.6142V17.296C61.6142 18.796 61.6142 20.38 61.2062 22.516L62.8022 22.648C63.1982 20.368 63.1982 18.856 63.1982 17.296V15.976H62.4542H61.6142ZM64.4342 23.32H54.3902V24.616H64.4342V23.32Z" fill="#EBFF00"/>
</svg>
