<svg width="30" height="30" viewBox="0 0 30 30" fill="none" xmlns="http://www.w3.org/2000/svg">
<path d="M15.4125 10.5H26.1C25.425 8.775 24.394 7.2935 23.007 6.0555C21.619 4.8185 20.025 3.95 18.225 3.45L14.775 9.375C14.625 9.625 14.625 9.875 14.775 10.125C14.925 10.375 15.1375 10.5 15.4125 10.5ZM10.0125 12.375C10.1625 12.625 10.375 12.75 10.65 12.75C10.925 12.75 11.1375 12.625 11.2875 12.375L16.65 3.15C16.375 3.1 16.1 3.0625 15.825 3.0375C15.55 3.0125 15.275 3 15 3C13.35 3 11.8125 3.3125 10.3875 3.9375C8.9625 4.5625 7.7 5.4 6.6 6.45L10.0125 12.375ZM3.375 18H10.2375C10.5125 18 10.731 17.875 10.893 17.625C11.056 17.375 11.0625 17.125 10.9125 16.875L5.55 7.65C4.75 8.675 4.125 9.8065 3.675 11.0445C3.225 12.2815 3 13.6 3 15C3 15.525 3.031 16.031 3.093 16.518C3.156 17.006 3.25 17.5 3.375 18ZM11.775 26.55L15.1875 20.625C15.3375 20.375 15.3315 20.125 15.1695 19.875C15.0065 19.625 14.7875 19.5 14.5125 19.5H3.9C4.575 21.225 5.6065 22.706 6.9945 23.943C8.3815 25.181 9.975 26.05 11.775 26.55ZM15 27C16.65 27 18.1875 26.6875 19.6125 26.0625C21.0375 25.4375 22.3 24.6 23.4 23.55L19.9875 17.625C19.8375 17.375 19.625 17.25 19.35 17.25C19.075 17.25 18.8625 17.375 18.7125 17.625L13.35 26.85C13.625 26.9 13.894 26.9375 14.157 26.9625C14.419 26.9875 14.7 27 15 27ZM24.45 22.35C25.25 21.325 25.875 20.1935 26.325 18.9555C26.775 17.7185 27 16.4 27 15C27 14.475 26.969 13.969 26.907 13.482C26.844 12.994 26.75 12.5 26.625 12H19.7625C19.4875 12 19.269 12.125 19.107 12.375C18.944 12.625 18.9375 12.875 19.0875 13.125L24.45 22.35ZM15 30C12.95 30 11.0125 29.606 9.1875 28.818C7.3625 28.031 5.769 26.956 4.407 25.593C3.044 24.231 1.969 22.6375 1.182 20.8125C0.394 18.9875 0 17.05 0 15C0 12.925 0.394 10.9815 1.182 9.1695C1.969 7.3565 3.044 5.769 4.407 4.407C5.769 3.044 7.3625 1.9685 9.1875 1.1805C11.0125 0.3935 12.95 0 15 0C17.075 0 19.0185 0.3935 20.8305 1.1805C22.6435 1.9685 24.231 3.044 25.593 4.407C26.956 5.769 28.031 7.3565 28.818 9.1695C29.606 10.9815 30 12.925 30 15C30 17.05 29.606 18.9875 28.818 20.8125C28.031 22.6375 26.956 24.231 25.593 25.593C24.231 26.956 22.6435 28.031 20.8305 28.818C19.0185 29.606 17.075 30 15 30Z" fill="black"/>
</svg>
