<svg width="16" height="16" viewBox="0 0 16 16" fill="none" xmlns="http://www.w3.org/2000/svg">
<g clip-path="url(#clip0_602_2051)">
<path d="M13.3866 7.61325L10.6933 3.84659C10.4666 3.52659 10.0999 3.33325 9.70661 3.33325C8.71328 3.33325 8.13994 4.45325 8.71328 5.25992L10.6666 7.99992L8.71328 10.7399C8.13328 11.5466 8.71328 12.6666 9.70661 12.6666C10.0999 12.6666 10.4733 12.4733 10.6999 12.1533L13.3933 8.38658C13.5533 8.15325 13.5533 7.84659 13.3866 7.61325Z" fill="#0F1015"/>
<path d="M8.71962 7.61325L6.03295 3.84659C5.79962 3.52659 5.43295 3.33325 5.03962 3.33325C4.04628 3.33325 3.46628 4.45325 4.04628 5.25992L5.99962 7.99992L4.04628 10.7399C3.46628 11.5466 4.04628 12.6666 5.03962 12.6666C5.43295 12.6666 5.80628 12.4733 6.03295 12.1533L8.72628 8.38658C8.88628 8.15325 8.88628 7.84659 8.71962 7.61325Z" fill="#0F1015"/>
</g>
<defs>
<clipPath id="clip0_602_2051">
<rect width="16" height="16" fill="white"/>
</clipPath>
</defs>
</svg>
