<svg width="36" height="36" viewBox="0 0 36 36" fill="none" xmlns="http://www.w3.org/2000/svg">
<path fill-rule="evenodd" clip-rule="evenodd" d="M18 36C27.9411 36 36 27.9411 36 18C36 8.05887 27.9411 0 18 0C8.05887 0 0 8.05887 0 18C0 27.9411 8.05887 36 18 36ZM16.7915 24.6917L17.9998 25.7917L19.2082 24.7L19.2411 24.6701C23.5143 20.7869 26.3332 18.2253 26.3332 15.0833C26.3332 12.5167 24.3165 10.5 21.7498 10.5C20.2998 10.5 18.9082 11.175 17.9998 12.2417C17.0915 11.175 15.6998 10.5 14.2498 10.5C11.6832 10.5 9.6665 12.5167 9.6665 15.0833C9.6665 18.2307 12.4952 20.7958 16.7809 24.6821L16.7915 24.6917Z" fill="white"/>
</svg>
