<svg width="12" height="12" viewBox="0 0 12 12" fill="none" xmlns="http://www.w3.org/2000/svg">
<g id="Heart broken" clip-path="url(#clip0_577_2503)">
<g id="Group">
<path id="Vector" d="M9.78501 1.97499C8.82501 1.32999 7.74501 1.38999 6.88501 1.84499L6.00001 4.49999H6.83001C7.16501 4.49999 7.40501 4.82499 7.31001 5.14499L6.40001 8.17999C6.35501 8.32499 6.14001 8.27999 6.15501 8.12999L6.50001 4.99999H5.66501C5.33501 4.99999 5.09501 4.67999 5.18501 4.36499L5.77501 2.30999C4.85001 1.44499 3.35501 1.15999 2.13501 2.01999C1.41001 2.53499 1.00001 3.34999 1.00001 4.24499C0.995011 6.14999 2.76501 7.59999 5.33001 9.89499C5.71001 10.235 6.29001 10.24 6.67501 9.89999C9.16501 7.68999 11.11 6.10999 10.995 4.08999C10.95 3.22499 10.5 2.45999 9.78501 1.97499Z" fill="black"/>
</g>
</g>
<defs>
<clipPath id="clip0_577_2503">
<rect width="12" height="12" fill="white"/>
</clipPath>
</defs>
</svg>
