<svg width="18" height="18" viewBox="0 0 18 18" fill="none" xmlns="http://www.w3.org/2000/svg">
<path d="M5.25 10.5H9.76875C9.98125 10.5 10.1562 10.428 10.2938 10.284C10.4313 10.1405 10.5 9.9625 10.5 9.75C10.5 9.5375 10.4283 9.35925 10.2847 9.21525C10.1407 9.07175 9.9625 9 9.75 9H5.23125C5.01875 9 4.84375 9.07175 4.70625 9.21525C4.56875 9.35925 4.5 9.5375 4.5 9.75C4.5 9.9625 4.57175 10.1405 4.71525 10.284C4.85925 10.428 5.0375 10.5 5.25 10.5ZM5.25 8.25H12.7687C12.9812 8.25 13.1562 8.178 13.2938 8.034C13.4313 7.8905 13.5 7.7125 13.5 7.5C13.5 7.2875 13.428 7.10925 13.284 6.96525C13.1405 6.82175 12.9625 6.75 12.75 6.75H5.23125C5.01875 6.75 4.84375 6.82175 4.70625 6.96525C4.56875 7.10925 4.5 7.2875 4.5 7.5C4.5 7.7125 4.57175 7.8905 4.71525 8.034C4.85925 8.178 5.0375 8.25 5.25 8.25ZM5.25 6H12.7687C12.9812 6 13.1562 5.92825 13.2938 5.78475C13.4313 5.64075 13.5 5.4625 13.5 5.25C13.5 5.0375 13.428 4.85925 13.284 4.71525C13.1405 4.57175 12.9625 4.5 12.75 4.5H5.23125C5.01875 4.5 4.84375 4.57175 4.70625 4.71525C4.56875 4.85925 4.5 5.0375 4.5 5.25C4.5 5.4625 4.57175 5.64075 4.71525 5.78475C4.85925 5.92825 5.0375 6 5.25 6ZM1.5 14.6813V3C1.5 2.5875 1.647 2.23425 1.941 1.94025C2.2345 1.64675 2.5875 1.5 3 1.5H15C15.4125 1.5 15.7657 1.64675 16.0597 1.94025C16.3533 2.23425 16.5 2.5875 16.5 3V12C16.5 12.4125 16.3533 12.7657 16.0597 13.0597C15.7657 13.3533 15.4125 13.5 15 13.5H4.5L2.775 15.225C2.5375 15.4625 2.2655 15.5155 1.959 15.384C1.653 15.253 1.5 15.0188 1.5 14.6813ZM3 12.8812L3.88125 12H15V3H3V12.8812Z" fill="white"/>
</svg>
