<svg width="20" height="20" viewBox="0 0 20 20" fill="none" xmlns="http://www.w3.org/2000/svg">
<g clip-path="url(#clip0_577_2515)">
<path d="M13.816 12.4581H13.1008L12.8473 12.2136C13.7345 11.1816 14.2686 9.84181 14.2686 8.38432C14.2686 5.13436 11.6343 2.5 8.38432 2.5C5.13436 2.5 2.5 5.13436 2.5 8.38432C2.5 11.6343 5.13436 14.2686 8.38432 14.2686C9.84181 14.2686 11.1816 13.7345 12.2136 12.8473L12.4581 13.1008V13.816L16.9845 18.3333L18.3333 16.9845L13.816 12.4581ZM8.38432 12.4581C6.13017 12.4581 4.31056 10.6385 4.31056 8.38432C4.31056 6.13017 6.13017 4.31056 8.38432 4.31056C10.6385 4.31056 12.4581 6.13017 12.4581 8.38432C12.4581 10.6385 10.6385 12.4581 8.38432 12.4581Z" fill="white"/>
</g>
<defs>
<clipPath id="clip0_577_2515">
<rect width="20" height="20" fill="white"/>
</clipPath>
</defs>
</svg>
