<svg width="88" height="36" viewBox="0 0 88 36" fill="none" xmlns="http://www.w3.org/2000/svg">
<g id="InfoButton Group">
<path id="Favorite Button" fill-rule="evenodd" clip-rule="evenodd" d="M70 36C79.9411 36 88 27.9411 88 18C88 8.05887 79.9411 0 70 0C60.0589 0 52 8.05887 52 18C52 27.9411 60.0589 36 70 36ZM68.7915 24.6917L69.9998 25.7917L71.2082 24.7L71.2411 24.6701C75.5143 20.7869 78.3332 18.2253 78.3332 15.0833C78.3332 12.5167 76.3165 10.5 73.7498 10.5C72.2998 10.5 70.9082 11.175 69.9998 12.2417C69.0915 11.175 67.6998 10.5 66.2498 10.5C63.6832 10.5 61.6665 12.5167 61.6665 15.0833C61.6665 18.2307 64.4952 20.7958 68.7809 24.6821L68.7915 24.6917Z" fill="white"/>
<path id="ChatBot Button" fill-rule="evenodd" clip-rule="evenodd" d="M18 36C27.9411 36 36 27.9411 36 18C36 8.05887 27.9411 0 18 0C8.05887 0 0 8.05887 0 18C0 27.9411 8.05887 36 18 36ZM18.7687 19.5H14.25C14.0375 19.5 13.8593 19.428 13.7153 19.284C13.5717 19.1405 13.5 18.9625 13.5 18.75C13.5 18.5375 13.5688 18.3592 13.7063 18.2153C13.8438 18.0718 14.0188 18 14.2312 18H18.75C18.9625 18 19.1408 18.0718 19.2847 18.2153C19.4282 18.3592 19.5 18.5375 19.5 18.75C19.5 18.9625 19.4312 19.1405 19.2938 19.284C19.1562 19.428 18.9812 19.5 18.7687 19.5ZM21.7687 17.25H14.25C14.0375 17.25 13.8593 17.178 13.7153 17.034C13.5717 16.8905 13.5 16.7125 13.5 16.5C13.5 16.2875 13.5688 16.1092 13.7063 15.9653C13.8438 15.8217 14.0188 15.75 14.2312 15.75H21.75C21.9625 15.75 22.1405 15.8217 22.284 15.9653C22.428 16.1092 22.5 16.2875 22.5 16.5C22.5 16.7125 22.4312 16.8905 22.2938 17.034C22.1562 17.178 21.9812 17.25 21.7687 17.25ZM21.7687 15H14.25C14.0375 15 13.8593 14.9283 13.7153 14.7847C13.5717 14.6407 13.5 14.4625 13.5 14.25C13.5 14.0375 13.5688 13.8593 13.7063 13.7153C13.8438 13.5717 14.0188 13.5 14.2312 13.5H21.75C21.9625 13.5 22.1405 13.5717 22.284 13.7153C22.428 13.8593 22.5 14.0375 22.5 14.25C22.5 14.4625 22.4312 14.6407 22.2938 14.7847C22.1562 14.9283 21.9812 15 21.7687 15ZM10.5 12V23.6813C10.5 24.0188 10.653 24.253 10.959 24.384C11.2655 24.5155 11.5375 24.4625 11.775 24.225L13.5 22.5H24C24.4125 22.5 24.7658 22.3533 25.0597 22.0597C25.3533 21.7658 25.5 21.4125 25.5 21V12C25.5 11.5875 25.3533 11.2343 25.0597 10.9403C24.7658 10.6467 24.4125 10.5 24 10.5H12C11.5875 10.5 11.2345 10.6467 10.941 10.9403C10.647 11.2343 10.5 11.5875 10.5 12ZM12.8813 21L12 21.8812V12H24V21H12.8813Z" fill="white"/>
</g>
</svg>
