<svg width="42" height="43" viewBox="0 0 42 43" fill="none" xmlns="http://www.w3.org/2000/svg">
<g filter="url(#filter0_d_577_2295)">
<path d="M21 34.5C18.2 34.5 15.625 33.8625 13.275 32.5875C10.925 31.3125 9 29.6125 7.5 27.4875V30C7.5 30.425 7.35625 30.7812 7.06875 31.0687C6.78125 31.3562 6.425 31.5 6 31.5C5.575 31.5 5.21875 31.3562 4.93125 31.0687C4.64375 30.7812 4.5 30.425 4.5 30V24C4.5 23.575 4.64375 23.2187 4.93125 22.9312C5.21875 22.6437 5.575 22.5 6 22.5H12C12.425 22.5 12.7812 22.6437 13.0687 22.9312C13.3562 23.2187 13.5 23.575 13.5 24C13.5 24.425 13.3562 24.7812 13.0687 25.0687C12.7812 25.3562 12.425 25.5 12 25.5H9.7875C10.9875 27.3 12.5687 28.75 14.5312 29.85C16.4937 30.95 18.65 31.5 21 31.5C24.525 31.5 27.5562 30.325 30.0937 27.975C32.6312 25.625 34.075 22.7375 34.425 19.3125C34.475 18.9125 34.65 18.5937 34.95 18.3562C35.25 18.1187 35.6 18 36 18C36.425 18 36.7875 18.1312 37.0875 18.3937C37.3875 18.6562 37.5125 18.975 37.4625 19.35C37.2875 21.475 36.7375 23.4562 35.8125 25.2937C34.8875 27.1312 33.6875 28.7312 32.2125 30.0937C30.7375 31.4562 29.0437 32.5312 27.1312 33.3187C25.2187 34.1062 23.175 34.5 21 34.5ZM21 4.5C17.475 4.5 14.4437 5.675 11.9062 8.025C9.36875 10.375 7.925 13.2625 7.575 16.6875C7.525 17.0875 7.35 17.4062 7.05 17.6437C6.75 17.8812 6.4 18 6 18C5.575 18 5.2125 17.8687 4.9125 17.6062C4.6125 17.3437 4.4875 17.025 4.5375 16.65C4.7125 14.525 5.2625 12.5437 6.1875 10.7062C7.1125 8.86875 8.3125 7.26875 9.7875 5.90625C11.2625 4.54375 12.9562 3.46875 14.8687 2.68125C16.7812 1.89375 18.825 1.5 21 1.5C23.8 1.5 26.375 2.1375 28.725 3.4125C31.075 4.6875 33 6.3875 34.5 8.5125V6C34.5 5.575 34.6437 5.21875 34.9312 4.93125C35.2187 4.64375 35.575 4.5 36 4.5C36.425 4.5 36.7812 4.64375 37.0687 4.93125C37.3562 5.21875 37.5 5.575 37.5 6V12C37.5 12.425 37.3562 12.7812 37.0687 13.0687C36.7812 13.3562 36.425 13.5 36 13.5H30C29.575 13.5 29.2187 13.3562 28.9312 13.0687C28.6437 12.7812 28.5 12.425 28.5 12C28.5 11.575 28.6437 11.2187 28.9312 10.9312C29.2187 10.6437 29.575 10.5 30 10.5H32.2125C31.0125 8.7 29.4312 7.25 27.4687 6.15C25.5062 5.05 23.35 4.5 21 4.5ZM21 27C21.525 27 21.9687 26.8187 22.3312 26.4562C22.6937 26.0937 22.875 25.65 22.875 25.125C22.875 24.6 22.6937 24.15 22.3312 23.775C21.9687 23.4 21.525 23.2125 21 23.2125C20.475 23.2125 20.0312 23.3937 19.6687 23.7562C19.3062 24.1187 19.125 24.5625 19.125 25.0875C19.125 25.6125 19.3062 26.0625 19.6687 26.4375C20.0312 26.8125 20.475 27 21 27ZM24 17.625C24.875 16.75 25.4562 16.0437 25.7437 15.5062C26.0312 14.9687 26.175 14.325 26.175 13.575C26.175 12.175 25.675 11.0625 24.675 10.2375C23.675 9.4125 22.45 9 21 9C20 9 19.1125 9.20625 18.3375 9.61875C17.5625 10.0312 16.925 10.6375 16.425 11.4375C16.225 11.7625 16.1937 12.1125 16.3312 12.4875C16.4687 12.8625 16.7125 13.125 17.0625 13.275C17.4125 13.425 17.75 13.4125 18.075 13.2375C18.4 13.0625 18.6875 12.825 18.9375 12.525C19.1875 12.225 19.4875 11.9875 19.8375 11.8125C20.1875 11.6375 20.575 11.55 21 11.55C21.675 11.55 22.2437 11.7437 22.7062 12.1312C23.1687 12.5187 23.4 13.0375 23.4 13.6875C23.4 14.1125 23.3 14.5375 23.1 14.9625C22.9 15.3875 22.475 15.8875 21.825 16.4625C21.2 17.0125 20.7312 17.55 20.4187 18.075C20.1062 18.6 19.8875 19.2 19.7625 19.875C19.7125 20.25 19.8125 20.5812 20.0625 20.8687C20.3125 21.1562 20.6375 21.3 21.0375 21.3C21.4125 21.3 21.725 21.1562 21.975 20.8687C22.225 20.5812 22.4 20.25 22.5 19.875C22.6 19.45 22.7687 19.075 23.0062 18.75C23.2437 18.425 23.575 18.05 24 17.625Z" fill="#EBFF00"/>
</g>
<defs>
<filter id="filter0_d_577_2295" x="-1" y="0" width="44" height="44" filterUnits="userSpaceOnUse" color-interpolation-filters="sRGB">
<feFlood flood-opacity="0" result="BackgroundImageFix"/>
<feColorMatrix in="SourceAlpha" type="matrix" values="0 0 0 0 0 0 0 0 0 0 0 0 0 0 0 0 0 0 127 0" result="hardAlpha"/>
<feOffset dy="4"/>
<feGaussianBlur stdDeviation="2"/>
<feComposite in2="hardAlpha" operator="out"/>
<feColorMatrix type="matrix" values="0 0 0 0 0 0 0 0 0 0 0 0 0 0 0 0 0 0 0.25 0"/>
<feBlend mode="normal" in2="BackgroundImageFix" result="effect1_dropShadow_577_2295"/>
<feBlend mode="normal" in="SourceGraphic" in2="effect1_dropShadow_577_2295" result="shape"/>
</filter>
</defs>
</svg>
