<svg width="40" height="40" viewBox="0 0 40 40" fill="none" xmlns="http://www.w3.org/2000/svg">
<g clip-path="url(#clip0_577_2314)">
<path d="M28.0835 11.4167L30.4835 13.8167L22.3501 21.95L16.8668 16.4667C16.2168 15.8167 15.1668 15.8167 14.5168 16.4667L4.5168 26.4833C3.8668 27.1333 3.8668 28.1833 4.5168 28.8333C5.1668 29.4833 6.2168 29.4833 6.8668 28.8333L15.6835 20L21.1668 25.4833C21.8168 26.1333 22.8668 26.1333 23.5168 25.4833L32.8335 16.1833L35.2335 18.5833C35.7501 19.1 36.6501 18.7333 36.6501 18V10.8333C36.6668 10.3667 36.3001 10 35.8335 10H28.6835C27.9335 10 27.5668 10.9 28.0835 11.4167Z" fill="#EBFF00"/>
</g>
<defs>
<clipPath id="clip0_577_2314">
<rect width="40" height="40" fill="white"/>
</clipPath>
</defs>
</svg>
