<svg width="89" height="16" viewBox="0 0 89 16" fill="none" xmlns="http://www.w3.org/2000/svg">
<path d="M6.784 12C6.09067 12 5.472 11.8507 4.928 11.552C4.39467 11.2427 3.97333 10.8267 3.664 10.304C3.36533 9.78133 3.216 9.19467 3.216 8.544V3.28H0.24V0.799999H9.2V3.28H6.272V8.752C6.272 8.96533 6.34667 9.14667 6.496 9.296C6.64533 9.44533 6.82133 9.52 7.024 9.52H8.016V12H6.784ZM10.2855 12V0.799999H15.4855C16.2748 0.799999 16.9895 0.970666 17.6295 1.312C18.2695 1.64267 18.7815 2.10667 19.1655 2.704C19.5495 3.29067 19.7415 3.97867 19.7415 4.768C19.7415 5.45067 19.5762 6.08 19.2455 6.656C18.9255 7.22133 18.4935 7.68 17.9495 8.032L18.7015 9.28C18.7655 9.376 18.8348 9.45067 18.9095 9.504C18.9948 9.54667 19.1068 9.568 19.2455 9.568H20.1415V12H18.4775C17.9442 12 17.4695 11.8827 17.0535 11.648C16.6375 11.4027 16.3175 11.088 16.0935 10.704L14.9575 8.752C14.8935 8.752 14.8295 8.752 14.7655 8.752C14.7015 8.752 14.6428 8.752 14.5895 8.752H13.3415V12H10.2855ZM13.3415 6.32H15.1655C15.4322 6.32 15.6775 6.26133 15.9015 6.144C16.1362 6.016 16.3175 5.83467 16.4455 5.6C16.5842 5.36533 16.6535 5.09333 16.6535 4.784C16.6535 4.47467 16.5842 4.208 16.4455 3.984C16.3068 3.76 16.1255 3.58933 15.9015 3.472C15.6775 3.344 15.4322 3.28 15.1655 3.28H13.3415V6.32ZM26.071 12.192C25.111 12.192 24.263 12.0053 23.527 11.632C22.791 11.248 22.215 10.7093 21.799 10.016C21.383 9.312 21.175 8.48533 21.175 7.536V0.799999H24.199V7.68C24.199 8.05333 24.2737 8.39467 24.423 8.704C24.583 9.00267 24.8017 9.24267 25.079 9.424C25.3563 9.59467 25.687 9.68 26.071 9.68C26.4443 9.68 26.7697 9.59467 27.047 9.424C27.3243 9.24267 27.5377 9.00267 27.687 8.704C27.8363 8.39467 27.911 8.05333 27.911 7.68V0.799999H30.935V7.536C30.935 8.48533 30.727 9.312 30.311 10.016C29.895 10.7093 29.319 11.248 28.583 11.632C27.8577 12.0053 27.0203 12.192 26.071 12.192ZM38.5184 12C37.825 12 37.2064 11.8507 36.6624 11.552C36.129 11.2427 35.7077 10.8267 35.3984 10.304C35.0997 9.78133 34.9504 9.19467 34.9504 8.544V3.28H31.9744V0.799999H40.9344V3.28H38.0064V8.752C38.0064 8.96533 38.081 9.14667 38.2304 9.296C38.3797 9.44533 38.5557 9.52 38.7584 9.52H39.7504V12H38.5184ZM42.0199 12V0.799999H45.0759V5.088H48.9479V0.799999H52.0039V12H48.9479V7.568H45.0759V12H42.0199ZM62.8934 12C62.2 12 61.5814 11.8507 61.0374 11.552C60.504 11.2427 60.0827 10.8267 59.7734 10.304C59.4747 9.78133 59.3254 9.19467 59.3254 8.544V3.28H56.3494V0.799999H65.3094V3.28H62.3814V8.752C62.3814 8.96533 62.456 9.14667 62.6054 9.296C62.7547 9.44533 62.9307 9.52 63.1334 9.52H64.1254V12H62.8934ZM64.9062 12L68.5063 2.16C68.7089 1.63733 69.0289 1.248 69.4663 0.992C69.9036 0.725333 70.3996 0.591999 70.9543 0.591999C71.5089 0.591999 72.0049 0.719999 72.4423 0.976C72.8903 1.232 73.2103 1.62133 73.4023 2.144L77.0023 12H73.7222L73.0663 9.952H68.7783L68.0903 12H64.9062ZM69.4983 7.52H72.3623L71.1303 3.472C71.1196 3.42933 71.0983 3.39733 71.0663 3.376C71.0343 3.35467 70.9969 3.344 70.9543 3.344C70.9223 3.344 70.8903 3.35467 70.8583 3.376C70.8369 3.39733 70.8156 3.42933 70.7943 3.472L69.4983 7.52ZM85.4916 15.472C84.809 15.472 84.217 15.3493 83.7156 15.104C83.2143 14.8587 82.8303 14.5173 82.5636 14.08C82.297 13.6427 82.1636 13.136 82.1636 12.56C82.1636 12.464 82.1636 12.3627 82.1636 12.256C82.1743 12.16 82.185 12.0587 82.1956 11.952C81.4276 11.9093 80.7236 11.744 80.0836 11.456C79.4436 11.1573 78.889 10.7573 78.4196 10.256C77.9503 9.744 77.5876 9.152 77.3316 8.48C77.0756 7.79733 76.9476 7.06667 76.9476 6.288C76.9476 5.50933 77.0863 4.77867 77.3636 4.096C77.641 3.40267 78.041 2.79467 78.5636 2.272C79.0863 1.74933 79.705 1.33867 80.4196 1.04C81.145 0.741332 81.9503 0.591999 82.8356 0.591999C83.721 0.591999 84.521 0.735999 85.2356 1.024C85.961 1.30133 86.585 1.696 87.1076 2.208C87.6303 2.70933 88.0303 3.30667 88.3076 4C88.5956 4.68267 88.7396 5.43467 88.7396 6.256V12.208C88.7396 12.784 88.617 13.3227 88.3716 13.824C88.137 14.3253 87.7796 14.7253 87.2996 15.024C86.8196 15.3227 86.217 15.472 85.4916 15.472ZM85.3636 12.944C85.545 12.944 85.689 12.8693 85.7956 12.72C85.913 12.5813 85.9716 12.3893 85.9716 12.144V9.712C85.705 9.936 85.4916 10.1653 85.3316 10.4C85.1823 10.624 85.065 10.8427 84.9796 11.056C84.8943 11.2693 84.8356 11.472 84.8036 11.664C84.7823 11.8453 84.7716 12.0053 84.7716 12.144C84.7716 12.3147 84.7983 12.4587 84.8516 12.576C84.9156 12.6933 84.9903 12.784 85.0756 12.848C85.161 12.912 85.257 12.944 85.3636 12.944ZM82.6436 9.424C82.7183 9.424 82.793 9.41867 82.8676 9.408C82.9423 9.39733 83.0116 9.38133 83.0756 9.36C83.2783 9.072 83.513 8.784 83.7796 8.496C84.0463 8.19733 84.3396 7.92 84.6596 7.664C84.9796 7.39733 85.3156 7.15733 85.6676 6.944V6.112C85.6676 5.68533 85.5983 5.29067 85.4596 4.928C85.321 4.56533 85.1236 4.25067 84.8676 3.984C84.6223 3.71733 84.3236 3.50933 83.9716 3.36C83.6303 3.2 83.257 3.12 82.8516 3.12C82.4463 3.12 82.073 3.2 81.7316 3.36C81.3903 3.52 81.0916 3.744 80.8356 4.032C80.5903 4.30933 80.393 4.64533 80.2436 5.04C80.105 5.424 80.0356 5.84 80.0356 6.288C80.0356 6.72533 80.0996 7.13067 80.2276 7.504C80.3556 7.87733 80.5316 8.20267 80.7556 8.48C80.9903 8.74667 81.2676 8.96 81.5876 9.12C81.9076 9.28 82.2596 9.38133 82.6436 9.424Z" fill="white"/>
</svg>
